<?xml version="1.0" encoding="iso-8859-1"?>
<!-- Generator: Adobe Illustrator 19.0.0, SVG Export Plug-In . SVG Version: 6.00 Build 0)  -->
<svg version="1.1" id="Layer_1" xmlns="http://www.w3.org/2000/svg" xmlns:xlink="http://www.w3.org/1999/xlink" x="0px" y="0px"
	 viewBox="0 0 487.951 487.951" style="enable-background:new 0 0 487.951 487.951;" xml:space="preserve">
<g transform="translate(0 -540.36)">
	<g>
		<g>
			<path d="M366.251,779.636h-21v-20.3c0-5.5-4.5-10-10-10s-10,4.5-10,10v20.3h-20.2c-5.5,0-10,4.5-10,10s4.5,10,10,10h20.2v20.3
				c0,5.5,4.5,10,10,10s10-4.5,10-10v-20.3h21c5.5,0,10-4.5,10-10S371.751,779.636,366.251,779.636z"/>
			<path d="M361.351,912.736c-25.3,0-45.9,20.3-45.9,45.2c0,12.1,4.8,23.6,13.5,32.4c8.8,8.8,20.3,13.6,32.4,13.6v0
				c24.9,0,45.1-20.6,45-46C406.351,932.636,386.651,912.736,361.351,912.736z M361.351,983.936c-14.1,0-25.9-11.9-25.9-26
				c0-13.9,11.6-25.2,25.9-25.2c14.1,0,25.1,11.1,25,25.2C386.351,972.236,375.151,983.936,361.351,983.936z"/>
			<path d="M147.051,912.736c-25.3,0-45.9,20.3-45.9,45.2c0,12.1,4.8,23.6,13.5,32.4c8.8,8.8,20.3,13.6,32.4,13.6h0
				c12.1,0,23.6-4.8,32.4-13.6c8.7-8.7,13.5-20.2,13.5-32.4C192.951,933.036,172.351,912.736,147.051,912.736z M147.051,983.936
				c-14.1,0-25.9-11.9-25.9-26c0-13.9,11.6-25.2,25.9-25.2s25.9,11.3,25.9,25.2C172.951,972.036,161.051,983.936,147.051,983.936z"
				/>
			<path d="M294.551,922.536h-80.7c-5.5,0-10,4.5-10,10s4.5,10,10,10h80.7c5.5,0,10-4.5,10-10S300.051,922.536,294.551,922.536z"/>
			<polygon points="335.351,871.336 335.351,871.336 335.351,871.336 			"/>
			<path d="M417.051,789.236c0-21.7-8.4-42.1-23.8-57.4c-15.4-15.3-36-23.8-57.9-23.8c-44.6,0-80.9,36.4-80.9,81.2
				c0,21.7,8.4,42.2,23.6,57.8c15.4,15.7,35.7,24.3,57.3,24.3C380.351,871.336,417.051,834.536,417.051,789.236z M335.351,851.336
				c-33.6,0-60.9-27.9-60.9-62.1c0-33.7,27.3-61.2,60.9-61.2c34,0,61.7,27.4,61.7,61.2
				C397.051,823.536,369.351,851.336,335.351,851.336z"/>
			<path d="M477.951,656.436L477.951,656.436l-254.9,0c0-0.2,0-0.4,0-0.6c0-16-13.3-29.4-29.2-29.6c-16.1-1-30.2,11.9-31.5,28.9
				c0,0.5,0,0.9,0,1.4h-38.9c-3.4,0-6.6,1.8-8.5,4.7l-70.4,112c-6.1,6.5-36.6,40-42.5,65.2c-7.8,31.7,9.1,94.1,9.9,96.7
				c1.2,4.3,5.1,7.3,9.6,7.3h59.5c5.5,0,10-4.5,10-10s-4.5-10-10-10h-51.8c-5-20.6-12.6-59.9-7.8-79.3c0-0.1,0-0.1,0-0.2
				c2.2-9.5,10.1-22,18.5-33.2c0.1,0,0.2,0,0.3,0h132c5.5,0,10-4.5,10-10v-81.9c0-5.5-4.5-10-10-10h-63.2l19.8-31.6h339v246.1h-42.2
				c-5.5,0-10,4.5-10,10s4.5,10,10,10h52.3c5.5,0,10-4.5,10-10v-265.9C487.951,660.936,483.451,656.436,477.951,656.436z
				 M162.351,728.036v61.9h-105.9c1.2-1.4,2.4-2.6,3.3-3.6c0.5-0.5,0.9-1,1.2-1.6l35.6-56.7H162.351z M203.051,656.436h-20.8
				c0.5-5.2,4.9-10.7,10.5-10.3c0.2,0,0.5,0,0.7,0c5.1,0,9.6,4.5,9.6,9.7C203.051,656.036,203.051,656.236,203.051,656.436z"/>
			<path d="M192.651,615.036c5.6,0,10-4.5,10-10v-30.3c0-5.5-4.5-10-10-10s-10,4.5-10,10v30.3
				C182.651,610.536,187.151,615.036,192.651,615.036z"/>
			<path d="M234.251,624.836c2.6,0,5.1-1,7-2.9l19.6-19.7c3.9-3.9,3.9-10.2,0-14.1c-3.9-3.9-10.2-3.9-14.1,0l-19.6,19.7
				c-3.9,3.9-3.9,10.2,0,14.1C229.151,623.836,231.651,624.836,234.251,624.836z"/>
			<path d="M144.851,621.936c2,1.9,4.5,2.9,7.1,2.9c2.5,0,5.1-1,7-2.9c3.9-3.9,3.9-10.2,0-14.1l-19.6-19.7c-3.9-3.9-10.2-3.9-14.1,0
				c-3.9,3.9-3.9,10.2,0,14.1L144.851,621.936z"/>
		</g>
	</g>
</g>
<g>
</g>
<g>
</g>
<g>
</g>
<g>
</g>
<g>
</g>
<g>
</g>
<g>
</g>
<g>
</g>
<g>
</g>
<g>
</g>
<g>
</g>
<g>
</g>
<g>
</g>
<g>
</g>
<g>
</g>
</svg>
