<svg xmlns="http://www.w3.org/2000/svg"  viewBox="0 0 512 512" width="64px" height="64px"><path d="M 51.5 37.513672 A 13.821 13.821 0 0 0 37.691406 51.314453 L 37.691406 67.513672 L 236.00586 67.513672 L 236.00586 51.314453 A 13.822 13.822 0 0 0 222.19922 37.513672 L 51.5 37.513672 z M 37.691406 77.509766 L 37.691406 109.78711 A 13.822 13.822 0 0 0 51.5 123.59375 L 60.054688 123.59375 L 60.054688 77.509766 L 37.691406 77.509766 z M 70.052734 77.509766 L 70.052734 123.59375 L 96.455078 123.59375 L 96.455078 77.509766 L 70.052734 77.509766 z M 106.45508 77.509766 L 106.45508 123.59375 L 130.83789 123.59375 L 130.83789 77.509766 L 106.45508 77.509766 z M 140.83789 77.509766 L 140.83789 123.59375 L 167.24219 123.59375 L 167.24219 77.509766 L 140.83789 77.509766 z M 177.24219 77.509766 L 177.24219 123.59375 L 202.63672 123.59375 L 202.63672 77.509766 L 177.24219 77.509766 z M 212.63477 77.509766 L 212.63477 123.59375 L 222.19922 123.59375 A 13.822 13.822 0 0 0 236.00586 109.78711 L 236.00586 77.509766 L 212.63477 77.509766 z M 51.511719 133.59375 L 51.511719 155.39258 L 222.18555 155.39258 L 222.18555 133.59375 L 51.511719 133.59375 z M 46.511719 165.39258 A 25.028 25.028 0 0 0 21.511719 190.39258 L 21.511719 449.49219 A 25.028 25.028 0 0 0 46.511719 474.49219 L 227.18555 474.49219 A 25.037 25.037 0 0 0 251.88477 453.36914 L 78.523438 453.36914 A 5 5 0 0 1 73.523438 448.36914 L 73.523438 212.52539 A 5 5 0 0 1 78.523438 207.52539 L 252.18555 207.52539 L 252.18555 190.39258 A 25.028 25.028 0 0 0 227.18555 165.39258 L 46.511719 165.39258 z M 83.523438 217.52539 L 83.523438 443.36719 L 252.18555 443.36719 L 252.18555 217.52539 L 83.523438 217.52539 z M 155.20508 242.36133 L 180.49023 242.36133 A 7.031 7.031 0 0 1 187.51172 249.38477 L 187.51172 280.7832 L 218.91797 280.7832 A 7.031 7.031 0 0 1 225.93945 287.80664 L 225.93945 313.08789 A 7.03 7.03 0 0 1 218.91797 320.10938 L 187.51758 320.10938 L 187.51758 351.51367 A 7.03 7.03 0 0 1 180.49414 358.53516 L 155.20898 358.53516 A 7.031 7.031 0 0 1 148.18555 351.51367 L 148.18555 320.10938 L 116.78516 320.10938 A 7.03 7.03 0 0 1 109.76367 313.08789 L 109.75977 287.80664 A 7.031 7.031 0 0 1 116.78125 280.7832 L 148.18164 280.7832 L 148.18164 249.38477 A 7.032 7.032 0 0 1 155.20508 242.36133 z M 158.18555 252.36133 L 158.18555 283.76758 A 7.03 7.03 0 0 1 151.16406 290.78906 L 119.76367 290.78906 L 119.76367 310.11328 L 151.16406 310.11328 A 7.031 7.031 0 0 1 158.18555 317.13281 L 158.18555 348.53125 L 177.51172 348.53125 L 177.51172 317.13281 A 7.032 7.032 0 0 1 184.53516 310.10938 L 215.93555 310.10938 L 215.93555 290.7832 L 184.53516 290.7832 A 7.031 7.031 0 0 1 177.51172 283.76172 L 177.51172 252.36133 L 158.18555 252.36133 z M 375.92578 259.47656 A 34.079 34.079 0 0 0 344.27148 278.70312 L 344.27148 278.70508 L 326.12891 315.87109 L 387.37891 345.77148 L 405.52148 308.60352 A 34.079 34.079 0 0 0 375.92578 259.47656 z M 368.4707 268.37695 A 5.0007316 5.0007316 0 0 1 370.25195 278.10352 L 370.24609 278.10547 A 22.491 22.491 0 0 0 357.26367 289.58203 L 349.80664 304.85742 A 5 5 0 1 1 340.82031 300.4707 L 348.27734 285.19531 A 32.431 32.431 0 0 1 367 268.64648 A 5.0007316 5.0007316 0 0 1 368.4707 268.37695 z M 454.80469 316.91211 A 34.123 34.123 0 0 0 425.76562 335.99023 L 407.62305 373.15625 L 468.87109 403.05664 L 487.01562 365.89062 A 34.08 34.08 0 0 0 471.3418 320.31445 A 34.123 34.123 0 0 0 454.80469 316.91211 z M 321.74219 324.85742 L 303.59961 362.02344 A 34.079 34.079 0 1 0 364.84961 391.92383 L 382.99219 354.75781 L 321.74219 324.85742 z M 449.95703 325.66211 A 5.0002588 5.0002588 0 0 1 451.73828 335.38867 L 451.74219 335.38867 A 22.483 22.483 0 0 0 438.75977 346.86523 L 431.30078 362.14258 A 5.0002984 5.0002984 0 1 1 422.3125 357.75586 L 429.76953 342.47852 A 32.427 32.427 0 0 1 448.48633 325.93164 A 5.0002588 5.0002588 0 0 1 449.95703 325.66211 z M 172.24219 380.56836 L 230.84961 380.56836 A 5 5 0 0 1 235.84961 385.57031 A 5 5 0 0 1 235.84961 385.57227 A 5 5 0 0 1 230.84961 390.56836 L 172.24219 390.56836 A 5 5 0 0 1 172.24219 380.56836 z M 403.23633 382.14258 L 385.0918 419.31055 A 34.079218 34.079218 0 0 0 446.3418 449.21094 L 464.48438 412.04297 L 403.23633 382.14258 z M 222.24219 410.56836 L 230.84961 410.56836 A 5 5 0 0 1 230.84961 420.56836 L 222.24219 420.56836 A 5 5 0 0 1 222.24219 410.56836 z M 108.52344 410.57227 L 187.34961 410.57227 A 5 5 0 0 1 187.34961 420.57227 L 108.52344 420.57227 A 5 5 0 0 1 108.52344 410.57227 z"/></svg>