<?xml version="1.0"?><svg xmlns="http://www.w3.org/2000/svg"  viewBox="0 0 50 50" width="50px" height="50px">    <path d="M 37.5 3 A 4.5 4.5 0 0 0 33 7.5 A 4.5 4.5 0 0 0 37.5 12 A 4.5 4.5 0 0 0 42 7.5 A 4.5 4.5 0 0 0 37.5 3 z M 8 4 A 2 2 0 0 0 6.2695312 5 L 3 5 A 1.0001 1.0001 0 0 0 2 6 L 2 14 C 2 20.278497 6.8526955 25.438848 13.001953 25.949219 A 1.0001 1.0001 0 0 0 13 26 C 13 28.4525 12.95798 31.862544 14.470703 34.796875 C 15.983424 37.731206 19.189377 40 24.875 40 C 27.821558 40 30.096714 39.064849 31.806641 37.720703 L 31.810547 37.779297 C 33.837956 36.191434 35.033181 33.996043 35.716797 31.972656 C 35.77375 31.806976 35.827388 31.644325 35.876953 31.482422 C 35.936188 31.285774 35.993414 31.093432 36.042969 30.902344 C 36.136183 30.548553 36.218 30.205371 36.279297 29.882812 C 36.289788 29.826991 36.295026 29.779497 36.304688 29.724609 C 36.355017 29.441786 36.388916 29.188827 36.417969 28.939453 C 36.46764 28.511359 36.499923 28.113276 36.5 27.791016 A 1.0001 1.0001 0 0 0 36.5 27.789062 L 36.5 25.849609 C 35.06 25.419609 34 24.08 34 22.5 C 34 20.57 35.57 19 37.5 19 C 39.43 19 41 20.57 41 22.5 C 41 24.08 39.94 25.419609 38.5 25.849609 L 38.5 27.789062 C 38.5 29.829062 37.829922 33.239922 35.919922 36.169922 C 35.049922 37.519922 33.769688 39.000859 31.929688 40.130859 L 32.230469 46 L 42.769531 46 L 43.5 31.810547 L 47 30.369141 L 47 22.800781 C 47 17.390781 42.74 13 37.5 13 C 32.26 13 28 17.390781 28 22.800781 L 28 30.369141 L 31.5 31.810547 L 31.673828 35.136719 C 30.245626 36.776567 28.155984 38 24.875 38 C 19.685623 38 17.454076 36.220279 16.248047 33.880859 C 15.042018 31.54144 15 28.4525 15 26 A 1.0001 1.0001 0 0 0 14.998047 25.949219 C 21.147304 25.438848 26 20.278497 26 14 L 26 6 A 1.0001 1.0001 0 0 0 25 5 L 21.728516 5 A 2 2 0 0 0 20 4 A 2 2 0 0 0 18 6 A 2 2 0 0 0 20 8 A 2 2 0 0 0 21.730469 7 L 24 7 L 24 14 C 24 19.534534 19.534534 24 14 24 C 8.4654664 24 4 19.534534 4 14 L 4 7 L 6.2714844 7 A 2 2 0 0 0 8 8 A 2 2 0 0 0 10 6 A 2 2 0 0 0 8 4 z M 37.5 21 C 36.672 21 36 21.672 36 22.5 C 36 23.328 36.672 24 37.5 24 C 38.328 24 39 23.328 39 22.5 C 39 21.672 38.328 21 37.5 21 z"/></svg>