<svg xmlns="http://www.w3.org/2000/svg"  viewBox="0 0 64 64" width="64px" height="64px"><path d="M 20 4 A 0.9993 0.9993 0 0 0 19.292969 4.2929688 L 11.292969 12.292969 A 0.9993 0.9993 0 0 0 11 13 L 11 59 A 1 1 0 0 0 12 60 L 52 60 A 1 1 0 0 0 53 59 L 53 5 A 1 1 0 0 0 52 4 L 20 4 z M 21 6 L 51 6 L 51 58 L 13 58 L 13 14 L 20 14 A 1 1 0 0 0 21 13 L 21 6 z M 19 7.4140625 L 19 12 L 14.414062 12 L 19 7.4140625 z M 30 8 A 1 1 0 0 0 29 9 L 29 12 L 26 12 A 1 1 0 0 0 25 13 L 25 17 A 1 1 0 0 0 26 18 L 29 18 L 29 21 A 1 1 0 0 0 30 22 L 34 22 A 1 1 0 0 0 35 21 L 35 18 L 38 18 A 1 1 0 0 0 39 17 L 39 13 A 1 1 0 0 0 38 12 L 35 12 L 35 9 A 1 1 0 0 0 34 8 L 30 8 z M 31 10 L 33 10 L 33 13 A 1 1 0 0 0 34 14 L 37 14 L 37 16 L 34 16 A 1 1 0 0 0 33 17 L 33 20 L 31 20 L 31 17 A 1 1 0 0 0 30 16 L 27 16 L 27 14 L 30 14 A 1 1 0 0 0 31 13 L 31 10 z M 21.919922 24.013672 A 1 1 0 0 0 21.292969 24.292969 L 18 27.585938 L 16.707031 26.292969 A 1 1 0 0 0 15.292969 27.707031 L 17.292969 29.707031 A 0.9967 0.9967 0 0 0 18 30 A 0.9967 0.9967 0 0 0 18.707031 29.707031 L 22.707031 25.707031 A 1 1 0 0 0 21.919922 24.013672 z M 25.958984 26 A 1 1 0 0 0 26 28 L 48 28 A 1 1 0 0 0 48 26 L 26 26 A 1 1 0 0 0 25.958984 26 z M 21.919922 32.013672 A 1 1 0 0 0 21.292969 32.292969 L 18 35.585938 L 16.707031 34.292969 A 1 1 0 0 0 15.292969 35.707031 L 17.292969 37.707031 A 0.9967 0.9967 0 0 0 18 38 A 0.9967 0.9967 0 0 0 18.707031 37.707031 L 22.707031 33.707031 A 1 1 0 0 0 21.919922 32.013672 z M 25.958984 34 A 1 1 0 0 0 26 36 L 48 36 A 1 1 0 0 0 48 34 L 26 34 A 1 1 0 0 0 25.958984 34 z M 16 40 A 1 1 0 0 0 15 41 L 15 45 A 1 1 0 0 0 16 46 L 22 46 A 1 1 0 0 0 23 45 L 23 41 A 1 1 0 0 0 22 40 L 16 40 z M 17 42 L 21 42 L 21 44 L 17 44 L 17 42 z M 25.958984 42 A 1 1 0 0 0 26 44 L 48 44 A 1 1 0 0 0 48 42 L 26 42 A 1 1 0 0 0 25.958984 42 z M 16 48 A 1 1 0 0 0 15 49 L 15 53 A 1 1 0 0 0 16 54 L 22 54 A 1 1 0 0 0 23 53 L 23 49 A 1 1 0 0 0 22 48 L 16 48 z M 17 50 L 21 50 L 21 52 L 17 52 L 17 50 z M 25.958984 50 A 1 1 0 0 0 26 52 L 48 52 A 1 1 0 0 0 48 50 L 26 50 A 1 1 0 0 0 25.958984 50 z"/></svg>